<svg xmlns="http://www.w3.org/2000/svg" viewBox="0 0 48 48" role="img" aria-labelledby="instagramIconTitle">
    <title id="instagramIconTitle">Instagram</title>
    <defs>
        <linearGradient id="instagramGradient" x1="8" y1="44" x2="40" y2="4" gradientUnits="userSpaceOnUse">
            <stop offset="0" stop-color="#feda75"/>
            <stop offset="0.25" stop-color="#fa7e1e"/>
            <stop offset="0.5" stop-color="#d62976"/>
            <stop offset="0.75" stop-color="#962fbf"/>
            <stop offset="1" stop-color="#4f5bd5"/>
        </linearGradient>
    </defs>
    <rect x="5" y="5" width="38" height="38" rx="11" fill="url(#instagramGradient)"/>
    <path fill="#ffffff" d="M24 16.2a7.8 7.8 0 1 0 0 15.6 7.8 7.8 0 0 0 0-15.6Zm0 12.8a5 5 0 1 1 0-10 5 5 0 0 1 0 10Z"/>
    <path fill="#ffffff" d="M32.1 14.2a1.9 1.9 0 1 0 0 3.8 1.9 1.9 0 0 0 0-3.8Z"/>
    <path fill="#ffffff" d="M24 11.6c4 0 4.5 0 6.1.1 1.5.1 2.3.3 2.8.5.7.3 1.2.6 1.7 1.1.5.5.9 1 1.1 1.7.2.5.5 1.3.5 2.8.1 1.6.1 2.1.1 6.1s0 4.5-.1 6.1c-.1 1.5-.3 2.3-.5 2.8-.3.7-.6 1.2-1.1 1.7-.5.5-1 .9-1.7 1.1-.5.2-1.3.5-2.8.5-1.6.1-2.1.1-6.1.1s-4.5 0-6.1-.1c-1.5-.1-2.3-.3-2.8-.5-.7-.3-1.2-.6-1.7-1.1-.5-.5-.9-1-1.1-1.7-.2-.5-.5-1.3-.5-2.8-.1-1.6-.1-2.1-.1-6.1s0-4.5.1-6.1c.1-1.5.3-2.3.5-2.8.3-.7.6-1.2 1.1-1.7.5-.5 1-.9 1.7-1.1.5-.2 1.3-.5 2.8-.5 1.6-.1 2.1-.1 6.1-.1Zm0-2.7c-4.1 0-4.7 0-6.3.1-1.6.1-2.8.3-3.8.7-1 .4-1.9.9-2.8 1.8-.9.9-1.4 1.8-1.8 2.8-.4 1-.7 2.2-.7 3.8-.1 1.6-.1 2.2-.1 6.3s0 4.7.1 6.3c.1 1.6.3 2.8.7 3.8.4 1 .9 1.9 1.8 2.8.9.9 1.8 1.4 2.8 1.8 1 .4 2.2.7 3.8.7 1.6.1 2.2.1 6.3.1s4.7 0 6.3-.1c1.6-.1 2.8-.3 3.8-.7 1-.4 1.9-.9 2.8-1.8.9-.9 1.4-1.8 1.8-2.8.4-1 .7-2.2.7-3.8.1-1.6.1-2.2.1-6.3s0-4.7-.1-6.3c-.1-1.6-.3-2.8-.7-3.8-.4-1-.9-1.9-1.8-2.8-.9-.9-1.8-1.4-2.8-1.8-1-.4-2.2-.7-3.8-.7-1.6-.1-2.2-.1-6.3-.1Z"/>
</svg>
