<svg xmlns="http://www.w3.org/2000/svg" width="82" height="82" viewBox="0 0 82 82" fill="none">
    <g filter="url(#shadow)">
        <circle cx="39" cy="40" r="35" fill="url(#outer)"/>
        <circle cx="39" cy="40" r="29" fill="url(#inner)"/>
        <path d="M46.5 43.03C65.3 21.03 84 20.53 91 23.03L102.5 34.03L92.5 81.53L20 104.03L-20.5 85.53L-25 41.53C-9 51.19 27.7 65.03 46.5 43.03Z" fill="url(#warmWave)"/>
        <path d="M36 39.98C-5.2 15-17.33 22.6-23.57 26.64L-32.24 39.98L-11.6 83.92L64.13 89.17L99.3 61.86L93.58 18C80.22 31.09 62.23 55.89 36 39.98Z" fill="url(#goldWave)"/>
    </g>
    <defs>
        <filter id="shadow" x="0" y="0" width="82" height="82" filterUnits="userSpaceOnUse">
            <feDropShadow dx="2" dy="1" stdDeviation="3" flood-opacity="0.25"/>
        </filter>
        <linearGradient id="outer" x1="39" y1="5" x2="39" y2="75" gradientUnits="userSpaceOnUse">
            <stop stop-color="#FFC123"/>
            <stop offset="1" stop-color="#F8832E"/>
        </linearGradient>
        <linearGradient id="inner" x1="39" y1="11" x2="39" y2="69" gradientUnits="userSpaceOnUse">
            <stop stop-color="#FFBF24"/>
            <stop offset="1" stop-color="#F4924B"/>
        </linearGradient>
        <linearGradient id="warmWave" x1="38.75" y1="22" x2="38.75" y2="104.03" gradientUnits="userSpaceOnUse">
            <stop stop-color="#FF9D55" stop-opacity="0.6"/>
            <stop offset="1" stop-color="#FD8A37" stop-opacity="0"/>
        </linearGradient>
        <linearGradient id="goldWave" x1="27.05" y1="13.64" x2="45.88" y2="93.47" gradientUnits="userSpaceOnUse">
            <stop stop-color="#FFBD3E" stop-opacity="0.49"/>
            <stop offset="1" stop-color="#FFFFFF" stop-opacity="0"/>
        </linearGradient>
    </defs>
</svg>
